<svg xmlns="http://www.w3.org/2000/svg" version="1.1" xmlns:xlink="http://www.w3.org/1999/xlink" xmlns:svgjs="http://svgjs.dev/svgjs" width="1500" height="1500" viewBox="0 0 1500 1500"><g transform="matrix(1,0,0,1,-0.323615160350073,-0.3236151603499593)"><svg viewBox="0 0 343 343" data-background-color="#000000" preserveAspectRatio="xMidYMid meet" height="1500" width="1500" xmlns="http://www.w3.org/2000/svg" xmlns:xlink="http://www.w3.org/1999/xlink"><g id="tight-bounds" transform="matrix(1,0,0,1,0.0740000000000407,0.07400000000001228)"><svg viewBox="0 0 342.85155851775386 342.85155851775386" height="342.85155851775386" width="342.85155851775386"><g><svg></svg></g><g><svg viewBox="0 0 342.85155851775386 342.85155851775386" height="342.85155851775386" width="342.85155851775386"><g><path d="M0 171.426c0-94.676 76.75-171.426 171.426-171.426 94.676 0 171.426 76.75 171.426 171.426 0 94.676-76.75 171.426-171.426 171.426-94.676 0-171.426-76.75-171.426-171.426zM171.426 338.811c92.444 0 167.385-74.941 167.385-167.385 0-92.444-74.941-167.385-167.385-167.386-92.444 0-167.385 74.941-167.386 167.386 0 92.444 74.941 167.385 167.386 167.385z" data-fill-palette-color="tertiary" fill="#9c7945" stroke="transparent"></path><ellipse rx="164.56874808852186" ry="164.56874808852186" cx="171.42577925887693" cy="171.42577925887693" fill="#9c7945" stroke="transparent" stroke-width="0" fill-opacity="1" data-fill-palette-color="tertiary"></ellipse></g><g transform="matrix(1,0,0,1,64.84655864529837,149.02412676561897)"><svg viewBox="0 0 213.1584412271571 44.80330498651591" height="44.80330498651591" width="213.1584412271571"><g><svg viewBox="0 0 213.1584412271571 44.80330498651591" height="44.80330498651591" width="213.1584412271571"><g><svg viewBox="0 0 213.1584412271571 44.80330498651591" height="44.80330498651591" width="213.1584412271571"><g><svg viewBox="0 0 213.1584412271571 44.80330498651591" height="44.80330498651591" width="213.1584412271571"><g id="textblocktransform"><svg viewBox="0 0 213.1584412271571 44.80330498651591" height="44.80330498651591" width="213.1584412271571" id="textblock"><g><svg viewBox="0 0 213.1584412271571 44.80330498651591" height="44.80330498651591" width="213.1584412271571"><g transform="matrix(1,0,0,1,0,0)"><svg width="213.1584412271571" viewBox="4 -40.45 194.34 40.85" height="44.80330498651591" data-palette-color="#000000"><path d="M25.15-2.1L25.15-37.55Q25.15-39.95 28.1-39.95L28.1-39.95Q31.1-39.95 31.1-37.55L31.1-37.55 31.1-2.1Q31.1 0.3 28.1 0.3L28.1 0.3Q25.15 0.3 25.15-2.1L25.15-2.1ZM9.95-37.55L9.95-2.1Q9.95 0.3 6.95 0.3L6.95 0.3Q4 0.3 4-2.1L4-2.1 4-37.55Q4-39.95 6.95-39.95L6.95-39.95Q9.95-39.95 9.95-37.55L9.95-37.55ZM21.65-20.65L21.65-20.65Q21.65-18.9 20.45-17.7 19.25-16.5 17.5-16.5L17.5-16.5Q15.8-16.5 14.6-17.7 13.4-18.9 13.4-20.65L13.4-20.65Q13.4-22.4 14.6-23.6 15.8-24.8 17.5-24.8L17.5-24.8Q19.25-24.8 20.45-23.6 21.65-22.4 21.65-20.65ZM52.05 0L45.5 0Q43.95 0 42.55-0.43 41.15-0.85 39.85-1.65L39.85-1.65 39.85-1.6Q37.4-3.15 37.4-7.3L37.4-7.3 37.4-9.75Q37.4-11.8 38.12-13.33 38.85-14.85 40.15-15.75L40.15-15.75 40.1-15.75Q41.35-16.6 42.75-17.03 44.15-17.45 45.45-17.45L45.45-17.45 56.5-17.45 56.5-22.1Q56.5-23.35 55.72-24.38 54.95-25.4 53.1-25.4L53.1-25.4 47.25-25.4Q45.35-25.4 44.62-24.48 43.9-23.55 43.9-22.3L43.9-22.3 43.9-21.9Q43.9-19.3 41.1-19.3L41.1-19.3Q38.3-19.3 38.3-21.9L38.3-21.9 38.3-22.35Q38.3-24.4 39.02-25.8 39.75-27.2 41-28.15L41-28.15 40.95-28.15Q42.25-29 43.67-29.55 45.1-30.1 46.4-30.1L46.4-30.1 54-30.1Q55.25-30.1 56.67-29.55 58.1-29 59.35-28.15L59.35-28.15 59.3-28.15Q60.6-27.2 61.3-25.68 62-24.15 62-22.15L62-22.15 62-2.1Q62 0.3 59.25 0.3L59.25 0.3Q58.7 0.3 58.22 0.25 57.75 0.2 57.37-0.03 57-0.25 56.77-0.68 56.55-1.1 56.55-1.8L56.55-1.8 56.5-12.75 46.4-12.75Q45.3-12.75 44.7-12.5 44.1-12.25 43.75-11.7L43.75-11.7Q43.35-10.85 43.17-10.38 43-9.9 43-9.3L43-9.3 43-7.35Q43-6.05 43.77-5.38 44.55-4.7 46.45-4.7L46.45-4.7 52.05-4.7Q53.9-4.7 53.9-2.35L53.9-2.35Q53.9-1.35 53.45-0.68 53 0 52.05 0L52.05 0ZM73.85-22.75L73.85-2.1Q73.85 0.3 71.1 0.3L71.1 0.3Q68.25 0.3 68.25-2.1L68.25-2.1 68.25-22.8Q68.25-26.9 70.7-28.5L70.7-28.5Q73.15-30.1 76.35-30.1L76.35-30.1 82.05-30.1Q83.9-30.1 83.9-27.75L83.9-27.75Q84-25.4 82.05-25.4L82.05-25.4 76.75-25.4Q74.95-25.4 74.4-24.7 73.85-24 73.85-22.75L73.85-22.75ZM103.64-1.95L103.64-21.75Q103.64-22.4 103.44-23.03 103.24-23.65 102.94-24.2L102.94-24.2Q102.29-25.4 100.24-25.4L100.24-25.4 97.04-25.4Q94.99-25.4 94.29-24.2L94.29-24.2Q93.69-23.05 93.69-21.75L93.69-21.75 93.69-1.95Q93.69 0.4 90.94 0.4L90.94 0.4Q88.09 0.4 88.09-1.95L88.09-1.95 88.09-22.2Q88.09-26.3 90.79-28.2L90.79-28.2Q93.54-30.1 96.14-30.1L96.14-30.1 101.19-30.1Q102.34-30.1 103.74-29.65 105.14-29.2 106.44-28.25L106.44-28.25Q107.69-29.2 109.07-29.65 110.44-30.1 111.69-30.1L111.69-30.1 116.69-30.1Q119.34-30.1 121.99-28.2L121.99-28.2Q124.74-26.35 124.74-22.2L124.74-22.2 124.74-1.95Q124.74 0.4 121.94 0.4L121.94 0.4Q119.14 0.4 119.14-1.95L119.14-1.95 119.14-21.75Q119.14-22.4 118.99-23.05 118.84-23.7 118.44-24.25L118.44-24.25 118.49-24.2Q118.09-24.85 117.49-25.13 116.89-25.4 115.74-25.4L115.74-25.4 112.59-25.4Q110.49-25.4 109.84-24.2L109.84-24.2Q109.19-23.1 109.19-21.75L109.19-21.75 109.19-1.95Q109.19 0.4 106.44 0.4L106.44 0.4Q103.64 0.4 103.64-1.95L103.64-1.95ZM138.84-30.1L146.84-30.1Q148.14-30.1 149.52-29.55 150.89-29 152.19-28.15L152.19-28.15 152.14-28.15Q153.44-27.2 154.14-25.68 154.84-24.15 154.84-22.15L154.84-22.15 154.84-7.95Q154.84-3.85 152.14-1.9L152.14-1.9Q149.49 0 146.84 0L146.84 0 138.84 0Q137.54 0 136.19-0.45 134.84-0.9 133.54-1.9L133.54-1.9Q130.84-3.8 130.84-7.95L130.84-7.95 130.84-22.15Q130.84-24.15 131.54-25.68 132.24-27.2 133.54-28.15L133.54-28.15 133.49-28.15Q134.74-29 136.14-29.55 137.54-30.1 138.84-30.1L138.84-30.1ZM139.74-4.7L145.94-4.7Q147.79-4.7 148.57-5.75 149.34-6.8 149.34-8L149.34-8 149.34-22.1Q149.34-23.35 148.57-24.38 147.79-25.4 145.94-25.4L145.94-25.4 139.74-25.4Q137.89-25.4 137.12-24.38 136.34-23.35 136.34-22.1L136.34-22.1 136.34-8Q136.34-6.8 137.12-5.75 137.89-4.7 139.74-4.7L139.74-4.7ZM166.64-21.75L166.64-2.1Q166.64 0.3 163.89 0.3L163.89 0.3Q161.14 0.3 161.14-2.1L161.14-2.1 161.14-22.2Q161.14-24.25 161.79-25.75 162.44-27.25 163.84-28.2L163.84-28.2Q166.49-30.1 169.14-30.1L169.14-30.1 177.19-30.1Q179.74-30.1 182.49-28.2L182.49-28.2Q185.19-26.3 185.19-22.2L185.19-22.2 185.19-2.1Q185.19 0.3 182.44 0.3L182.44 0.3Q179.69 0.3 179.69-2.1L179.69-2.1 179.69-21.75Q179.69-23.05 178.89-24.25L178.89-24.25 178.94-24.2Q178.29-25.4 176.29-25.4L176.29-25.4 170.04-25.4Q167.99-25.4 167.34-24.2L167.34-24.2Q166.64-23.15 166.64-21.75L166.64-21.75ZM197.29-27.9L197.29-2.1Q197.29 0.3 194.54 0.3L194.54 0.3Q191.74 0.3 191.74-2.1L191.74-2.1 191.74-27.9Q191.74-30.3 194.54-30.3L194.54-30.3Q197.29-30.3 197.29-27.9L197.29-27.9ZM198.34-36.6L198.34-36.6Q198.34-35 197.24-33.9 196.14-32.8 194.54-32.8L194.54-32.8Q192.94-32.8 191.81-33.9 190.69-35 190.69-36.6L190.69-36.6Q190.69-38.25 191.81-39.35 192.94-40.45 194.54-40.45L194.54-40.45Q196.14-40.45 197.24-39.35 198.34-38.25 198.34-36.6Z" opacity="1" transform="matrix(1,0,0,1,0,0)" fill="#000000" class="wordmark-text-0" data-fill-palette-color="quaternary" id="text-0"></path></svg></g></svg></g></svg></g></svg></g><g></g></svg></g></svg></g></svg></g></svg></g><defs></defs></svg><rect width="342.85155851775386" height="342.85155851775386" fill="none" stroke="none" visibility="hidden"></rect></g></svg></g></svg>